{
    "asset" : {
        "generator" : "Khronos glTF Blender I/O v3.4.50",
        "version" : "2.0"
    },
    "scene" : 0,
    "scenes" : [
        {
            "name" : "Scene",
            "nodes" : [
                0,
                1,
                2,
                3
            ]
        }
    ],
    "nodes" : [
        {
            "name" : "Empty",
            "rotation" : [
                0.5,
                0.5,
                -0.5,
                0.5
            ],
            "translation" : [
                0.89625084400177,
                0,
                1.2513024806976318
            ]
        },
        {
            "mesh" : 0,
            "name" : "Cylinder",
            "scale" : [
                0.5992252230644226,
                0.5914307236671448,
                0.5992252230644226
            ],
            "translation" : [
                -0.0005392692983150482,
                -1.0231736898422241,
                -0.0006085187196731567
            ]
        },
        {
            "name" : "Empty.001",
            "rotation" : [
                0.5,
                0.5,
                -0.5,
                0.5
            ],
            "translation" : [
                -1.0408796072006226,
                0,
                1.2513024806976318
            ]
        },
        {
            "name" : "Mball",
            "rotation" : [
                0,
                0,
                0.6726248264312744,
                0.7399837374687195
            ],
            "scale" : [
                1.582706093788147,
                0.034673430025577545,
                0.5797204375267029
            ],
            "translation" : [
                -0.055349018424749374,
                -0.9608879089355469,
                -0.1613648682832718
            ]
        }
    ],
    "materials" : [
        {
            "doubleSided" : true,
            "name" : "Material.001",
            "pbrMetallicRoughness" : {
                "baseColorFactor" : [
                    0.9258266091346741,
                    0.1525125652551651,
                    0.08909283578395844,
                    1
                ],
                "metallicFactor" : 0,
                "roughnessFactor" : 0.5
            }
        }
    ],
    "meshes" : [
        {
            "name" : "Cylinder.001",
            "primitives" : [
                {
                    "attributes" : {
                        "POSITION" : 0,
                        "TEXCOORD_0" : 1,
                        "NORMAL" : 2
                    },
                    "indices" : 3,
                    "material" : 0
                }
            ]
        }
    ],
    "accessors" : [
        {
            "bufferView" : 0,
            "componentType" : 5126,
            "count" : 151,
            "max" : [
                1,
                1,
                1
            ],
            "min" : [
                -1,
                -1.0000001192092896,
                -1
            ],
            "type" : "VEC3"
        },
        {
            "bufferView" : 1,
            "componentType" : 5126,
            "count" : 151,
            "type" : "VEC2"
        },
        {
            "bufferView" : 2,
            "componentType" : 5126,
            "count" : 151,
            "type" : "VEC3"
        },
        {
            "bufferView" : 3,
            "componentType" : 5123,
            "count" : 444,
            "type" : "SCALAR"
        }
    ],
    "bufferViews" : [
        {
            "buffer" : 0,
            "byteLength" : 1812,
            "byteOffset" : 0,
            "target" : 34962
        },
        {
            "buffer" : 0,
            "byteLength" : 1208,
            "byteOffset" : 1812,
            "target" : 34962
        },
        {
            "buffer" : 0,
            "byteLength" : 1812,
            "byteOffset" : 3020,
            "target" : 34962
        },
        {
            "buffer" : 0,
            "byteLength" : 888,
            "byteOffset" : 4832,
            "target" : 34963
        }
    ],
    "buffers" : [
        {
            "byteLength" : 5720,
            "uri" : "data:application/octet-stream;base64,"
        }
    ]
}
